<svg xmlns="http://www.w3.org/2000/svg" width="725" height="258" viewBox="0 0 725 258" xmlns:xlink="http://www.w3.org/1999/xlink">
  <defs>
    <polygon id="a" points="0 79.534 96.52 79.534 96.52 0 0 0"/>
    <path id="c" d="M1.359,19.434 L1.359,28.809 C1.359,28.809 -0.984,33.756 4.224,27.507 L4.224,27.507 C9.431,21.258 27.919,18.914 27.919,18.914 L27.919,18.914 L48.489,24.382 L48.489,45.733 L53.176,50.421 L62.55,51.462 L72.184,32.193 L64.894,7.197 C60.682,2.366 54.883,0.526 48.485,0.526 L48.485,0.526 C27.982,0.528 1.359,19.434 1.359,19.434"/>
    <path id="e" d="M1.359,19.434 L1.359,28.809 C1.359,28.809 -0.984,33.756 4.224,27.507 L4.224,27.507 C9.431,21.258 27.919,18.914 27.919,18.914 L27.919,18.914 L48.489,24.382 L48.489,45.733 L53.176,50.421 L62.55,51.462 L72.184,32.193 L64.894,7.197 C60.682,2.366 54.883,0.526 48.485,0.526 L48.485,0.526 C27.982,0.528 1.359,19.434 1.359,19.434"/>
    <path id="g" d="M1.359,19.434 L1.359,28.809 C1.359,28.809 -0.984,33.756 4.224,27.507 L4.224,27.507 C9.431,21.258 27.919,18.914 27.919,18.914 L27.919,18.914 L48.489,24.382 L48.489,45.733 L53.176,50.421 L62.55,51.462 L72.184,32.193 L64.894,7.197 C60.682,2.366 54.883,0.526 48.485,0.526 L48.485,0.526 C27.982,0.528 1.359,19.434 1.359,19.434 L1.359,19.434 Z"/>
    <path id="i" d="M1.359,19.434 L1.359,28.809 C1.359,28.809 -0.984,33.756 4.224,27.507 L4.224,27.507 C9.431,21.258 27.919,18.914 27.919,18.914 L27.919,18.914 L48.489,24.382 L48.489,45.733 L53.176,50.421 L62.55,51.462 L72.184,32.193 L64.894,7.197 C60.682,2.366 54.883,0.526 48.485,0.526 L48.485,0.526 C27.982,0.528 1.359,19.434 1.359,19.434 L1.359,19.434 Z"/>
    <path id="k" d="M1.359,19.434 L1.359,28.809 C1.359,28.809 -0.984,33.756 4.224,27.507 L4.224,27.507 C9.431,21.258 27.919,18.914 27.919,18.914 L27.919,18.914 L48.489,24.382 L48.489,45.733 L53.176,50.421 L62.55,51.462 L72.184,32.193 L64.894,7.197 C60.682,2.366 54.883,0.526 48.485,0.526 L48.485,0.526 C27.982,0.528 1.359,19.434 1.359,19.434 L1.359,19.434 Z"/>
    <path id="m" d="M1.359,19.434 L1.359,28.809 C1.359,28.809 -0.984,33.756 4.224,27.507 L4.224,27.507 C9.431,21.258 27.919,18.914 27.919,18.914 L27.919,18.914 L48.489,24.382 L48.489,45.733 L53.176,50.421 L62.55,51.462 L72.184,32.193 L64.894,7.197 C60.682,2.366 54.883,0.526 48.485,0.526 L48.485,0.526 C27.982,0.528 1.359,19.434 1.359,19.434 L1.359,19.434 Z"/>
    <path id="o" d="M1.359,19.434 L1.359,28.809 C1.359,28.809 -0.984,33.756 4.224,27.507 L4.224,27.507 C9.431,21.258 27.919,18.914 27.919,18.914 L27.919,18.914 L48.489,24.382 L48.489,45.733 L53.176,50.421 L62.55,51.462 L72.184,32.193 L64.894,7.197 C60.682,2.366 54.883,0.526 48.485,0.526 L48.485,0.526 C27.982,0.528 1.359,19.434 1.359,19.434"/>
    <path id="q" d="M1.359,19.434 L1.359,28.809 C1.359,28.809 -0.984,33.756 4.224,27.507 L4.224,27.507 C9.431,21.258 27.919,18.914 27.919,18.914 L27.919,18.914 L48.489,24.382 L48.489,45.733 L53.176,50.421 L62.55,51.462 L72.184,32.193 L64.894,7.197 C60.682,2.366 54.883,0.526 48.485,0.526 L48.485,0.526 C27.982,0.528 1.359,19.434 1.359,19.434"/>
  </defs>
  <g fill="none" fill-rule="evenodd" transform="translate(-2 1)">
    <text fill="#16191F" font-family="AmazonEmber-Regular, Amazon Ember" font-size="10.12" letter-spacing=".051">
      <tspan x="2.014" y="128.68">Set up account resources. </tspan> <tspan x="17.336" y="141.56">Learn the basics of </tspan> <tspan x="6.229" y="154.44">reinforcement learning.</tspan>
    </text>
    <text fill="#16191F" font-family="AmazonEmber-Regular, Amazon Ember" font-size="10.12" letter-spacing=".051">
      <tspan x="289.207" y="128.68">Observe the agent interact </tspan> <tspan x="295.628" y="141.56">with the environment in </tspan> <tspan x="325.755" y="154.44">simulation.</tspan>
    </text>
    <text fill="#16191F" font-family="AmazonEmber-Regular, Amazon Ember" font-size="10.12" letter-spacing=".051">
      <tspan x="144.751" y="128.68">Define the reward function, </tspan> <tspan x="158.812" y="141.56">hyperparameters and </tspan> <tspan x="178.501" y="154.44">action space.</tspan>
    </text>
    <text fill="#16191F" font-family="AmazonEmber-Regular, Amazon Ember" font-size="10.12" letter-spacing=".051">
      <tspan x="453.014" y="128.68">Watch the agent drive </tspan> <tspan x="458.686" y="141.56">itself in a simulated </tspan> <tspan x="458.124" y="154.44">track environments. </tspan>
    </text>
    <text fill="#16191F" font-family="AmazonEmber-Regular, Amazon Ember" font-size="10.12" letter-spacing=".051">
      <tspan x="596.011" y="128.68">See how your model stacks </tspan> <tspan x="611.859" y="141.56">up. No cost to enter, </tspan> <tspan x="589.864" y="154.44">unlimited model submissions.</tspan>
    </text>
    <text fill="#16191F" font-family="AmazonEmber-Regular, Amazon Ember" font-size="12.88" letter-spacing=".064">
      <tspan x="35.089" y="108.68">Learn RL</tspan>
    </text>
    <text fill="#16191F" font-family="AmazonEmber-Regular, Amazon Ember" font-size="12.88" letter-spacing=".064">
      <tspan x="316.763" y="109">Train model</tspan>
    </text>
    <text fill="#16191F" font-family="AmazonEmber-Regular, Amazon Ember" font-size="12.88" letter-spacing=".064">
      <tspan x="169.778" y="108.68">Create model</tspan>
    </text>
    <text fill="#16191F" font-family="AmazonEmber-Regular, Amazon Ember" font-size="12.88" letter-spacing=".064">
      <tspan x="458.857" y="108.68">Evaluate model</tspan>
    </text>
    <text fill="#16191F" font-family="AmazonEmber-Regular, Amazon Ember" font-size="12.88" letter-spacing=".064">
      <tspan x="590.118" y="108.68">Join DeepRacer League</tspan>
    </text>
    <g stroke="#879196" stroke-width="1.84" transform="translate(14.72 14.72)" stroke-linejoin="round">
      <path d="M0 61.9459931L0 65.8302332.266800005 66.0307932C1.52536003 66.9811532 3.05992006 67.4945132 4.63772008 67.4945132L74.2504413 67.4945132C75.5651214 67.4945132 76.8411614 67.0492332 77.8706414 66.2304332L78.3729614 65.8302332 78.3729614 61.9459931 0 61.9459931zM68.0494572 34.3334806L68.0494572 55.570761C68.0494572 56.444761 67.3401372 57.154081 66.4661372 57.154081L12.5026162 57.154081C11.6286162 57.154081 10.9202162 56.444761 10.9202162 55.570761L10.9202162 19.5380404C10.9202162 18.6640403 11.6286162 17.9547203 12.5026162 17.9547203L46.8885369 17.9547203"/>
      <path d="M46.8885369,14.2452803 L8.40677615,14.2452803 C7.53277614,14.2452803 6.82345612,14.9546003 6.82345612,15.8286003 L6.82345612,60.1477611 C6.82345612,61.0217611 7.53277614,61.7292411 8.40677615,61.7292411 L70.1369373,61.7292411 C71.0109373,61.7292411 71.7193373,61.0217611 71.7193373,60.1477611 L71.7193373,34.3334806"/>
      <path d="M49.6440289 46.5540248L53.024109 46.5540248C54.217349 45.4270248 54.482309 42.5777848 54.482309 42.5777848L52.691989 40.7874647 52.494189 30.5129046C48.3183089 24.0839444 34.7961486 30.3813446 32.1447086 32.2369846 30.0093885 33.7310646 25.4691885 36.3429447 23.7800684 37.3034247 23.3743484 37.5352647 22.8803084 37.5490647 22.4617084 37.3429847L21.5601084 36.8986247C21.1350684 36.6888647 20.6382684 36.9979847 20.6382684 37.4727047L20.6382684 41.2824247C20.6382684 41.2824247 22.7119484 41.5133448 22.8269484 43.9899848M40.0326047 46.5540248L30.6210046 46.5540248"/>
      <path d="M30.3168525 46.9897369C30.3168525 49.3614969 28.3949725 51.2842969 26.0232125 51.2842969 23.6514524 51.2842969 21.7295724 49.3614969 21.7295724 46.9897369 21.7295724 44.6188968 23.6514524 42.6960968 26.0232125 42.6960968 28.3949725 42.6960968 30.3168525 44.6188968 30.3168525 46.9897369zM49.0375649 46.9897369C49.0375649 49.3614969 47.1147649 51.2842969 44.7430048 51.2842969 42.3721648 51.2842969 40.4493647 49.3614969 40.4493647 46.9897369 40.4493647 44.6188968 42.3721648 42.6960968 44.7430048 42.6960968 47.1147649 42.6960968 49.0375649 44.6188968 49.0375649 46.9897369z"/>
      <path d="M53.242333 46.5872368C53.242333 48.9580769 51.3195329 50.8808769 48.9477729 50.8808769 48.4445329 50.8808769 47.9615329 50.7943969 47.5116529 50.6343169M34.4065286 46.5872368C34.4065286 48.9580769 32.4846486 50.8808769 30.1128885 50.8808769 29.6096485 50.8808769 29.1266485 50.7943969 28.6767685 50.6343169M54.632177 13.9057083C53.163857 17.4863483 52.1021769 21.4791484 51.5897369 25.2585085 55.721457 28.0635885 60.5873371 28.9513885 65.7982172 28.9513885 71.0081773 28.9513885 75.8740574 28.0635885 80.0048575 25.2585085 79.5172574 21.6539484 78.5282574 17.8525083 77.1638974 14.4025083"/>
      <path d="M64.4403892 25.1757085C64.8893492 25.1904285 65.3419892 25.1968685 65.7983092 25.1968685 69.9281893 25.1968685 73.8427893 24.6384284 77.3443094 23.0100284M60.0946771 24.7668604C61.1213971 24.9370605 62.1701971 25.0520605 63.2355571 25.1192205M54.142553 22.9592444C55.599833 23.6474044 57.128873 24.1488044 58.7158731 24.5002444M78.6115174 3.97881607L91.7997177 8.10869615 66.3239972 14.8642563C66.2126772 14.8927763 66.1004372 14.8927763 65.9900372 14.8642563L40.5143167 8.10869615 65.9587572.0310960006C66.0893972-.0103040002 66.2246372-.0103040002 66.3552772.0310960006L74.2010373 2.61353605"/>
      <path d="M68.3109212,6.74691212 L83.4568815,2.54527205 L80.4402015,0.964712018 C80.3758015,0.939872017 80.3086415,0.937112017 80.2433215,0.952752017 L67.6448412,4.41379208"/>
      <path d="M68.5570212,5.89517611 C68.5570212,6.88693612 67.5312212,7.69009614 66.2643812,7.69009614 C64.9984612,7.69009614 63.9717412,6.88693612 63.9717412,5.89517611 C63.9717412,4.90433609 64.9984612,4.10117607 66.2643812,4.10117607 C67.5312212,4.10117607 68.5570212,4.90433609 68.5570212,5.89517611 Z"/>
    </g>
    <g stroke="#879196" stroke-width="1.84" transform="translate(160.08 17.48)" stroke-linejoin="round">
      <path d="M.000184000003 59.1360371L.000184000003 63.0202771.266064005 63.2208371C1.52554403 64.1711972 3.06010406 64.6845572 4.63698408 64.6845572L74.2497053 64.6845572C75.5653054 64.6845572 76.8413454 64.2392772 77.8708254 63.4204772L78.3731454 63.0202771 78.3731454 59.1360371.000184000003 59.1360371zM68.0496412 38.3434847L68.0496412 52.760805C68.0496412 53.634805 67.3403212 54.344125 66.4663212 54.344125L12.5028002 54.344125C11.6288002 54.344125 10.9204002 53.634805 10.9204002 52.760805L10.9204002 16.7280843C10.9204002 15.8540843 11.6288002 15.1447643 12.5028002 15.1447643L46.8887209 15.1447643"/>
      <path d="M46.8887209,11.4352322 L8.40696015,11.4352322 C7.53296014,11.4352322 6.82364012,12.1445522 6.82364012,13.0185522 L6.82364012,57.337713 C6.82364012,58.2117131 7.53296014,58.9191931 8.40696015,58.9191931 L70.1371213,58.9191931 C71.0111213,58.9191931 71.7195213,58.2117131 71.7195213,57.337713 L71.7195213,38.3433927"/>
      <path d="M47.7116609 22.1590284C43.7473808 22.1019884 38.7223407 23.3016684 32.8619406 27.4039485 30.2638605 29.2227885 24.7374204 32.4013886 22.6830604 33.5697886 22.1890204 33.8513086 21.5873404 33.8697086 21.0785804 33.6176286L19.9801004 33.0766686C19.4639804 32.8218286 18.8586203 33.1981086 18.8586203 33.7749486L18.8586203 38.4117487C18.8586203 38.4117487 21.3821804 38.6923487 21.5220204 41.7062688M53.543449 44.8283808L58.2731691 44.8283808C59.7249291 43.4566608 60.0469291 39.9882607 60.0469291 39.9882607L57.869289 37.8097007M42.4621408 44.8283808L31.0072206 44.8283808"/>
      <path d="M30.6386686,45.3584848 C30.6386686,48.2445249 28.2991085,50.5840849 25.4121485,50.5840849 C22.5270284,50.5840849 20.1874684,48.2445249 20.1874684,45.3584848 C20.1874684,42.4715248 22.5270284,40.1319647 25.4121485,40.1319647 C28.2991085,40.1319647 30.6386686,42.4715248 30.6386686,45.3584848 Z"/>
      <path d="M28.3171405 45.3584848C28.3171405 46.9620449 27.0171805 48.2629249 25.4127005 48.2629249 23.8091404 48.2629249 22.5082604 46.9620449 22.5082604 45.3584848 22.5082604 43.7540048 23.8091404 42.4540448 25.4127005 42.4540448 27.0171805 42.4540448 28.3171405 43.7540048 28.3171405 45.3584848zM50.9963369 45.3584848C50.9963369 46.9620449 49.6954569 48.2629249 48.0918969 48.2629249 46.4874168 48.2629249 45.1874568 46.9620449 45.1874568 45.3584848 45.1874568 43.7540048 46.4874168 42.4540448 48.0918969 42.4540448 49.6954569 42.4540448 50.9963369 43.7540048 50.9963369 45.3584848z"/>
      <path d="M53.420353,45.3584848 C53.420353,48.2445249 51.0807929,50.5840849 48.1947529,50.5840849 C45.3087128,50.5840849 42.9691528,48.2445249 42.9691528,45.3584848 C42.9691528,42.4715248 45.3087128,40.1319647 48.1947529,40.1319647 C51.0807929,40.1319647 53.420353,42.4715248 53.420353,45.3584848 Z"/>
      <path d="M58.5378531 44.8679408C58.5378531 47.7539809 56.198293 50.0935409 53.312253 50.0935409 52.699533 50.0935409 52.1116529 49.9877409 51.5651729 49.7936209M35.6151326 44.8679408C35.6151326 47.7539809 33.2755726 50.0935409 30.3895326 50.0935409 29.7768125 50.0935409 29.1889325 49.9877409 28.6424525 49.7936209M92.1232817 26.7347405L92.1232817 29.2527805C92.1232817 29.7072605 91.7552817 30.0761805 91.2989617 30.0761805L86.5020816 30.0761805M76.7590974 30.0759965L51.9006969 30.0759965C51.4462169 30.0759965 51.0772969 29.7079965 51.0772969 29.2525965L51.0772969.822756015C51.0772969.368276007 51.4462169.000276000005 51.9006969.000276000005L91.2996977.000276000005C91.7550977.000276000005 92.1230977.368276007 92.1230977.822756015L92.1230977 3.19359606M84.4479055 30.0759965L78.6877854 30.0759965M59.3177371 14.8475123L71.2970573 14.8475123"/>
      <path d="M73.7035013 12.4406082C75.0319814 12.4406082 76.1093014 13.5188482 76.1093014 14.8473283 76.1093014 16.1767283 75.0319814 17.2540483 73.7035013 17.2540483 72.3741013 17.2540483 71.2967813 16.1767283 71.2967813 14.8473283 71.2967813 13.5188482 72.3741013 12.4406082 73.7035013 12.4406082zM76.1094854 14.8475123L86.5018056 14.8475123M59.3177371 5.7301281L66.0622572 5.7301281M68.4691612 3.32414406C69.7976413 3.32414406 70.8749613 4.40146408 70.8749613 5.7299441 70.8749613 7.06026413 69.7976413 8.13666415 68.4691612 8.13666415 67.1397612 8.13666415 66.0624412 7.06026413 66.0624412 5.7299441 66.0624412 4.40146408 67.1397612 3.32414406 68.4691612 3.32414406zM70.8752373 5.7301281L86.5014376 5.7301281M59.3177371 23.9648964L62.8201771 23.9648964M65.2257932 21.5579004C66.5551932 21.5579004 67.6325132 22.6352204 67.6325132 23.9646204 67.6325132 25.2940205 66.5551932 26.3704205 65.2257932 26.3704205 63.8973132 26.3704205 62.8199931 25.2940205 62.8199931 23.9646204 62.8199931 22.6352204 63.8973132 21.5579004 65.2257932 21.5579004zM67.6327892 23.9648964L86.5019896 23.9648964M55.980897 5.7301281L57.315817 5.7301281M55.980897 14.8475123L57.315817 14.8475123M55.980897 23.9648964L57.315817 23.9648964M102.786818 20.8311004L99.6339778 19.1355403C99.5401378 19.0858603 99.4269778 19.0840203 99.3312978 19.1327803L96.1471777 20.7694604C95.9070577 20.8918204 95.6310577 20.6875804 95.6788977 20.4217004L96.3173777 16.8999403C96.3357777 16.7941403 96.3017377 16.6865003 96.2262977 16.6110603L93.6861777 14.0884203C93.4948177 13.8989003 93.6052177 13.5713802 93.8720177 13.5355002L97.4158578 13.0543402C97.5234978 13.0396202 97.6182578 12.9724602 97.6670178 12.8758602L99.2788578 9.68346018C99.4012178 9.44242017 99.7452978 9.44610017 99.8621378 9.68898018L101.416938 12.9135802C101.463858 13.0092602 101.554018 13.0764202 101.659818 13.0939002L105.197218 13.6413002C105.464018 13.6817802 105.567058 14.0111403 105.372938 14.1979003L102.785898 16.6717803C102.708618 16.7463003 102.672738 16.8539403 102.690218 16.9588203L103.262458 20.4925404C103.304778 20.7593404 103.024178 20.9589804 102.786818 20.8311004z"/>
      <path d="M111.55911,15.3263723 C111.55911,21.8270924 106.28935,27.0968525 99.7886298,27.0968525 C93.2888297,27.0968525 88.0181496,21.8270924 88.0181496,15.3263723 C88.0181496,8.82657216 93.2888297,3.55681206 99.7886298,3.55681206 C106.28935,3.55681206 111.55911,8.82657216 111.55911,15.3263723 Z"/>
    </g>
    <g transform="translate(308.2 1.84)">
      <path stroke="#879196" stroke-width="1.84" d="M76.6310334 6.72566012C76.6310334 8.37430015 75.2942734 9.71014018 73.6465533 9.71014018 71.9979133 9.71014018 70.6620733 8.37430015 70.6620733 6.72566012 70.6620733 5.07794009 71.9979133 3.74118007 73.6465533 3.74118007 75.2942734 3.74118007 76.6310334 5.07794009 76.6310334 6.72566012zM71.8828213 9.13173617L65.5743812 16.5450963M81.7458655 16.5447283L75.4374254 9.13136817M63.1221211 21.6648964L63.1221211 21.6648964C61.5507611 21.6648964 60.2655211 20.3787364 60.2655211 18.8073763 60.2655211 17.2360163 61.5507611 15.9498563 63.1221211 15.9498563 64.6944012 15.9498563 65.9796412 17.2360163 65.9796412 18.8073763 65.9796412 20.3787364 64.6944012 21.6648964 63.1221211 21.6648964z" stroke-linejoin="round"/>
      <mask id="b" fill="white">
        <use xlink:href="#a"/>
      </mask>
      <polygon stroke="#879196" stroke-width="1.84" points="80.864 21.665 86.579 21.665 86.579 15.95 80.864 15.95" stroke-linejoin="round" mask="url(#b)"/>
      <polygon stroke="#879196" stroke-width="1.84" points="87.763 32.147 83.722 36.189 79.681 32.147 83.722 28.106" stroke-linejoin="round" mask="url(#b)"/>
      <path stroke="#879196" stroke-width="1.84" d="M83.6460335 22.1509324L83.6460335 28.1198925M48.6393889 48.0951169L49.2171489 48.7547569 49.7958289 49.4153169 50.3735889 50.0740369 54.301069 48.0601569C55.173229 48.6728769 56.120829 49.1347169 57.109829 49.4429169L57.8982691 53.791757 58.7741091 53.849717 59.6490291 53.906757 60.5239491 53.965637 61.8809491 49.7529569C62.8975491 49.5753969 63.8939092 49.2414369 64.8332292 48.7492369L68.4745892 51.2727969 69.1333093 50.6941169 69.7938693 50.1163569 70.4535093 49.5385969 68.4322692 45.5963968C69.0440693 44.7306768 69.5068293 43.7867568 69.8159493 42.8023568L74.1703093 42.0129968 74.2282693 41.1380767 74.2862293 40.2622367 74.3432693 39.3873167 70.1370293 38.0321567C69.9631493 37.0109567 69.6282693 36.0109167 69.1360693 35.0660766L71.6513493 31.4375966 71.0735893 30.7779566 70.4949093 30.1173965 69.9171493 29.4577565 65.9970292 31.4688766C65.1239492 30.8497166 64.1708292 30.3805166 63.1772291 30.0695565L62.3915491 25.7418765 61.5175491 25.6839165 60.6417091 25.6250365 59.7667891 25.5679965 58.4199091 29.7493965C57.388589 29.9241965 56.378429 30.2618365 55.426229 30.7613966L51.8170689 28.2608365 51.1565089 28.8385965 50.4977889 29.4163565 49.8372289 29.9950365 51.8400689 33.9013566C51.2209089 34.7799566 50.7526289 35.7367566 50.4425889 36.7367967L46.1204288 37.5206367 46.0624688 38.3946367 46.0054288 39.2704767 45.9465488 40.1453967 50.1334689 41.4941168C50.3110289 42.5199168 50.6505089 43.5273168 51.1491489 44.4739968L48.6393889 48.0951169z" stroke-linejoin="round" mask="url(#b)"/>
      <path stroke="#879196" stroke-width="1.84" d="M65.8040132 39.7666327C65.8040132 42.8918728 63.2703331 45.4246328 60.1460131 45.4246328 57.019853 45.4246328 54.486173 42.8918728 54.486173 39.7666327 54.486173 36.6413927 57.019853 34.1077126 60.1460131 34.1077126 63.2703331 34.1077126 65.8040132 36.6413927 65.8040132 39.7666327zM.919724017 73.0653893L.919724017 76.9496294 1.18652402 77.1501894C2.44508404 78.1005494 3.97964407 78.6139094 5.5574441 78.6139094L75.1701654 78.6139094C76.4857654 78.6139094 77.7608854 78.1686294 78.7912854 77.3498294L79.2936054 76.9496294 79.2936054 73.0653893.919724017 73.0653893z" stroke-linejoin="round" mask="url(#b)"/>
      <path stroke="#879196" stroke-width="1.84" d="M68.9691813,52.2729289 L68.9691813,66.6902492 C68.9691813,67.5642492 68.2598612,68.2735692 67.3858612,68.2735692 L13.4232602,68.2735692 C12.5492602,68.2735692 11.8399402,67.5642492 11.8399402,66.6902492 L11.8399402,30.6575286 C11.8399402,29.7835285 12.5492602,29.0742085 13.4232602,29.0742085 L47.8091809,29.0742085" stroke-linejoin="round" mask="url(#b)"/>
      <path stroke="#879196" stroke-width="1.84" d="M47.8091809,25.3646765 L9.32650017,25.3646765 C8.45250015,25.3646765 7.74410014,26.0739965 7.74410014,26.9479965 L7.74410014,71.2671573 C7.74410014,72.1411573 8.45250015,72.8486373 9.32650017,72.8486373 L71.0566613,72.8486373 C71.9306613,72.8486373 72.6390613,72.1411573 72.6390613,71.2671573 L72.6390613,52.2728369" stroke-linejoin="round" mask="url(#b)"/>
      <polyline stroke="#879196" stroke-width="1.84" points="53.797 24.632 53.797 .92 95.6 .92 95.6 45.755 76.491 45.755" stroke-linejoin="round" mask="url(#b)"/>
      <path stroke="#879196" stroke-width="1.84" d="M42.7357488 58.7362051L45.6687088 58.7362051C46.7027888 57.758245 46.9327889 55.285285 46.9327889 55.285285L45.3807488 53.733245 45.2087088 44.8193648C41.5857488 39.2414047 29.8539085 44.7043648 27.5539085 46.3143648 25.7019485 47.6106449 21.7615884 49.8766049 20.2969484 50.7101249 19.9455084 50.9106849 19.5167884 50.9235649 19.1533883 50.7441649L18.3713883 50.3586849C18.0015483 50.1765249 17.5700683 50.4451649 17.5700683 50.8564049L17.5700683 54.161965C17.5700683 54.161965 19.3705084 54.361605 19.4698684 56.510725M34.3973286 58.7362051L26.2314085 58.7362051" stroke-linejoin="round" mask="url(#b)"/>
      <path stroke="#879196" stroke-width="1.84" d="M25.9681965 59.1135891C25.9681965 61.1707091 24.3011564 62.8395891 22.2431164 62.8395891 20.1859964 62.8395891 18.5171163 61.1707091 18.5171163 59.1135891 18.5171163 57.056469 20.1859964 55.388509 22.2431164 55.388509 24.3011564 55.388509 25.9681965 57.056469 25.9681965 59.1135891zM42.2092328 59.1135891C42.2092328 61.1707091 40.5421927 62.8395891 38.4841527 62.8395891 36.4270327 62.8395891 34.7581526 61.1707091 34.7581526 59.1135891 34.7581526 57.056469 36.4270327 55.388509 38.4841527 55.388509 40.5421927 55.388509 42.2092328 57.056469 42.2092328 59.1135891z" stroke-linejoin="round" mask="url(#b)"/>
      <path stroke="#879196" stroke-width="1.84" d="M45.8577688 58.7640811C45.8577688 60.8212011 44.1898088 62.4891611 42.1317688 62.4891611 41.6956888 62.4891611 41.2761687 62.4146411 40.8870087 62.2757211M29.5160845 58.7640811C29.5160845 60.8212011 27.8490445 62.4891611 25.7910045 62.4891611 25.3549245 62.4891611 24.9354045 62.4146411 24.5462444 62.2757211" stroke-linejoin="round" mask="url(#b)"/>
    </g>
    <g stroke="#879196" stroke-width="1.84" transform="translate(456.32)" stroke-linejoin="round">
      <path d="M0 73.6178493L0 77.5020894.266800005 77.7017294C1.52536003 78.6530094 3.05992006 79.1654494 4.63772008 79.1654494L74.2504413 79.1654494C75.5651214 79.1654494 76.8411614 78.7201694 77.8706414 77.9013694L78.3729614 77.5020894 78.3729614 73.6178493 0 73.6178493zM68.0494572 52.824377L68.0494572 67.2426172C68.0494572 68.1166172 67.3401372 68.8250172 66.4661372 68.8250172L12.5026162 68.8250172C11.6286162 68.8250172 10.9202162 68.1166172 10.9202162 67.2426172L10.9202162 31.2089766C10.9202162 30.3349766 11.6286162 29.6256565 12.5026162 29.6256565L46.8885369 29.6256565"/>
      <path d="M46.8885369,25.9162165 L8.40677615,25.9162165 C7.53277614,25.9162165 6.82345612,26.6255365 6.82345612,27.4995365 L6.82345612,71.8186973 C6.82345612,72.6926973 7.53277614,73.4010973 8.40677615,73.4010973 L70.1369373,73.4010973 C71.0109373,73.4010973 71.7193373,72.6926973 71.7193373,71.8186973 L71.7193373,52.824377"/>
      <polyline points="51.054 38.177 51.054 4.642 54.638 4.642"/>
      <polyline points="86.892 4.642 90.477 4.642 90.477 48.941 58.567 48.941"/>
      <path d="M68.9730453 33.6140406L85.1006455 33.6140406M68.9730453 21.5030684L85.1006455 21.5030684"/>
      <polyline points="57.326 21.982 59.396 24.052 64.493 18.954" stroke-linecap="round"/>
      <polyline points="57.326 34.093 59.396 36.163 64.493 31.065" stroke-linecap="round"/>
      <polyline points="73.453 2.688 82.413 2.688 85.101 9.856 56.43 9.856 59.117 2.688 68.077 2.688" stroke-linecap="round"/>
      <path d="M73.4527093,2.68796405 C73.4527093,4.17192408 72.2493493,5.3762041 70.7653893,5.3762041 C69.2805093,5.3762041 68.0771492,4.17192408 68.0771492,2.68796405 C68.0771492,1.20400402 69.2805093,-0.000276000005 70.7653893,-0.000276000005 C72.2493493,-0.000276000005 73.4527093,1.20400402 73.4527093,2.68796405 Z" stroke-linecap="round"/>
      <path d="M51.5901049 59.0667611L56.169865 59.0667611C57.575625 57.739201 57.8884251 54.380281 57.8884251 54.380281L55.778865 52.2716409 55.545185 40.1644407C56.082465 40.9924407 46.6966248 31.6029206 31.5644646 42.1948808 29.0491845 43.9557608 23.6975444 47.0340809 21.7085044 48.1656809 21.2291844 48.4380009 20.6477444 48.4554809 20.1537044 48.2116809L19.0920243 47.6882009C18.5906243 47.4416409 18.0045843 47.8059609 18.0045843 48.3644009L18.0045843 52.854001C18.0045843 52.854001 20.4481044 53.126321 20.5842644 56.044561M40.8600527 59.0667611L29.7676125 59.0667611"/>
      <path d="M29.4112965,59.5806731 C29.4112965,62.3747131 27.1453365,64.6406732 24.3512964,64.6406732 C21.5563364,64.6406732 19.2912963,62.3747131 19.2912963,59.5806731 C19.2912963,56.785713 21.5563364,54.520673 24.3512964,54.520673 C27.1453365,54.520673 29.4112965,56.785713 29.4112965,59.5806731 Z"/>
      <path d="M26.3988485 59.5806731C26.3988485 60.7113531 25.4816085 61.6285931 24.3509284 61.6285931 23.2202484 61.6285931 22.3039284 60.7113531 22.3039284 59.5806731 22.3039284 58.4499931 23.2202484 57.532753 24.3509284 57.532753 25.4816085 57.532753 26.3988485 58.4499931 26.3988485 59.5806731zM48.4195089 59.5806731C48.4195089 60.7453931 47.4755889 61.6893131 46.3108688 61.6893131 45.1461488 61.6893131 44.2022288 60.7453931 44.2022288 59.5806731 44.2022288 58.4150331 45.1461488 57.472033 46.3108688 57.472033 47.4755889 57.472033 48.4195089 58.4150331 48.4195089 59.5806731z"/>
      <path d="M51.4715169,59.5806731 C51.4715169,62.3747131 49.2055569,64.6406732 46.4105968,64.6406732 C43.6165568,64.6406732 41.3505968,62.3747131 41.3505968,59.5806731 C41.3505968,56.785713 43.6165568,54.520673 46.4105968,54.520673 C49.2055569,54.520673 51.4715169,56.785713 51.4715169,59.5806731 Z"/>
      <path d="M56.426361 59.1054011C56.426361 61.9003611 54.160401 64.1654012 51.3663609 64.1654012 50.7720409 64.1654012 50.2025609 64.0642012 49.6744809 63.8765212M34.2304406 59.1054011C34.2304406 61.9003611 31.9644806 64.1654012 29.1704405 64.1654012 28.5761205 64.1654012 28.0075605 64.0642012 27.4785605 63.8765212"/>
    </g>
    <g stroke="#879196" stroke-width="1.84" transform="translate(609.96 9.2)" stroke-linejoin="round">
      <path d="M77.1979374,17.1454883 C77.1979374,26.4466885 70.5040173,33.9888486 62.2470171,33.9888486 C53.989097,33.9888486 47.2960969,26.4466885 47.2960969,17.1454883 L47.2960969,2.25344804 C47.2960969,1.51652803 47.8922569,0.919448017 48.6282569,0.919448017 L76.0966974,0.919448017 C76.8400574,0.919448017 77.4408174,1.52940803 77.4288574,2.27368804 L77.1979374,17.1454883 Z"/>
      <path d="M63.1885451,47.2700609 L61.5371451,47.2700609 C60.5214651,47.2700609 59.6971451,46.4457408 59.6971451,45.4300608 L59.6971451,33.9429406 L65.0285452,33.9429406 L65.0285452,45.4300608 C65.0285452,46.4457408 64.2042252,47.2700609 63.1885451,47.2700609 Z"/>
      <path d="M67.1865892,52.564569 L57.539469,52.564569 C56.521949,52.564569 55.699469,51.7402489 55.699469,50.7245689 L55.699469,49.0731689 C55.699469,48.0574889 56.521949,47.2331689 57.539469,47.2331689 L67.1865892,47.2331689 C68.2022692,47.2331689 69.0265893,48.0574889 69.0265893,49.0731689 L69.0265893,50.7245689 C69.0265893,51.7402489 68.2022692,52.564569 67.1865892,52.564569 Z"/>
      <path d="M53.982289 52.538533L71.5524493 52.538533C72.4384093 52.538533 73.1560093 53.256133 73.1560093 54.142093L73.1560093 56.265453C73.1560093 57.151413 72.4384093 57.869013 71.5524493 57.869013L59.1959291 57.869013M47.1020689 8.47918015L41.6262288 8.47918015C40.8902287 8.47918015 40.2940687 9.07534016 40.2940687 9.81134018L40.2940687 14.5410603C40.2940687 18.6102203 43.5931888 21.9093404 47.6623489 21.9093404M77.5052174 8.47918015L82.9801375 8.47918015C83.7170575 8.47918015 84.3132175 9.07534016 84.3132175 9.81134018L84.3132175 14.5410603C84.3132175 18.6102203 81.0140975 21.9093404 76.9449374 21.9093404M66.6115892 23.2387404L62.4393891 20.9948604C62.3142691 20.9277004 62.1643091 20.9258604 62.0382691 20.9911804L57.824669 23.1559404C57.507269 23.3197004 57.141109 23.0483004 57.204589 22.6968604L58.0491491 18.0352203C58.0749091 17.8953803 58.0298291 17.7527803 57.9286291 17.6534203L54.566949 14.3147403C54.314869 14.0626603 54.459309 13.6311802 54.813509 13.5833402L59.5027491 12.9457802C59.6462691 12.9264602 59.7704691 12.8381402 59.8357891 12.7093402L61.9701891 8.48470015C62.1311891 8.16638015 62.5865891 8.17006015 62.7420691 8.49206015L64.7982692 12.7590202C64.8608292 12.8869002 64.9804292 12.9761402 65.1202692 12.9982202L69.8021493 13.7231802C70.1554293 13.7774602 70.2915893 14.2126203 70.0339893 14.4591803L66.6106692 17.7343803C66.5085492 17.8319003 66.4607092 17.9735803 66.4827892 18.1143403L67.2408692 22.7907004C67.2969892 23.1430604 66.9262292 23.4080204 66.6115892 23.2387404zM53.581537 41.0295167L56.560497 41.0295167M44.6250608 24.7085324L28.7311405 24.7085324C27.9473005 24.7085324 27.3125005 25.3433325 27.3125005 26.1271725L27.3125005 35.9610527M80.3729495 24.7085324L95.5584697 24.7085324C96.3413897 24.7085324 96.9771098 25.3433325 96.9771098 26.1271725L96.9771098 39.6116127C96.9771098 40.3945327 96.3413897 41.0293327 95.5584697 41.0293327L67.7284692 41.0293327M47.1388689 28.8647245L40.3741087 28.8647245M49.9752289 33.1062006L36.4705487 33.1062006M54.938261 36.8140767L51.4487009 36.8140767M77.5959294 28.8647245L84.3606895 28.8647245M74.0507093 33.1062006L88.2637896 33.1062006M69.7965373 36.8140767L85.3178575 36.8140767M46.1649568 65.8219532L52.3335569 65.8219532C54.227837 64.0334732 54.649197 59.5089131 54.649197 59.5089131L51.8073169 56.667953 51.4917569 40.3572727C52.2157969 41.4732328 39.5713167 28.8241525 19.1877963 43.0933528 15.7985163 45.4660328 8.58847616 49.6115529 5.90851611 51.1369129 5.2645161 51.5039929 4.48067608 51.5269929 3.81551607 51.1985529L2.38399604 50.4938329C1.70963603 50.1617129.919356017 50.6520729.919356017 51.4037129L.919356017 57.452713C.919356017 57.452713 4.21111608 57.818873 4.39511608 61.7500331M31.7090886 65.8219532L16.7673683 65.8219532"/>
      <path d="M16.2865763,66.5137012 C16.2865763,70.2783413 13.2349362,73.3299813 9.46937617,73.3299813 C5.7047361,73.3299813 2.65309605,70.2783413 2.65309605,66.5137012 C2.65309605,62.7490611 5.7047361,59.6974211 9.46937617,59.6974211 C13.2349362,59.6974211 16.2865763,62.7490611 16.2865763,66.5137012 Z"/>
      <path d="M13.2587642 66.5137012C13.2587642 68.6057812 11.5622842 70.3022613 9.46928417 70.3022613 7.37628413 70.3022613 5.6807241 68.6057812 5.6807241 66.5137012 5.6807241 64.4216212 7.37628413 62.7251411 9.46928417 62.7251411 11.5622842 62.7251411 13.2587642 64.4216212 13.2587642 66.5137012zM42.8416408 66.5137012C42.8416408 68.6057812 41.1451607 70.3022613 39.0530807 70.3022613 36.9591607 70.3022613 35.2636006 68.6057812 35.2636006 66.5137012 35.2636006 64.4216212 36.9591607 62.7251411 39.0530807 62.7251411 41.1451607 62.7251411 42.8416408 64.4216212 42.8416408 66.5137012z"/>
      <path d="M46.0041408,66.5137012 C46.0041408,70.2783413 42.9525008,73.3299813 39.1878607,73.3299813 C35.4223006,73.3299813 32.3706606,70.2783413 32.3706606,66.5137012 C32.3706606,62.7490611 35.4223006,59.6974211 39.1878607,59.6974211 C42.9525008,59.6974211 46.0041408,62.7490611 46.0041408,66.5137012 Z"/>
      <path d="M52.679569 65.8740252C52.679569 69.6386653 49.6279289 72.6903053 45.8632888 72.6903053 45.0638088 72.6903053 44.2965288 72.5532253 43.5835288 72.3002253M22.7786484 65.8740252C22.7786484 69.6386653 19.7270084 72.6903053 15.9623683 72.6903053 15.1628883 72.6903053 14.3956083 72.5532253 13.6826082 72.3002253"/>
    </g>
    <text fill="#242F3D" transform="translate(312 243)" font-family="LucidaGrande, Lucida Grande" font-size="12.88" letter-spacing=".009">
      <tspan x=".616" y="12.647">Clone model</tspan>
    </text>
    <g transform="translate(106.72 64.4)">
      <path stroke="#AAB8B8" stroke-width=".92" d="M0.000276000005,3.76198127 L39.6357167,3.76198127"/>
      <polygon fill="#AAB8B8" points="36.588 0 35.959 .675 39.283 3.763 35.959 6.851 36.588 7.524 40.633 3.763"/>
    </g>
    <g transform="translate(254.84 64.4)">
      <path stroke="#AAB8B8" stroke-width=".92" d="M0.000276000005,3.76198127 L39.6357167,3.76198127"/>
      <polygon fill="#AAB8B8" points="36.588 0 35.959 .675 39.283 3.763 35.959 6.851 36.588 7.524 40.633 3.763"/>
    </g>
    <g transform="translate(404.8 64.4)">
      <path stroke="#AAB8B8" stroke-width=".92" d="M0.000276000005,3.76198127 L39.6357167,3.76198127"/>
      <polygon fill="#AAB8B8" points="36.588 0 35.959 .675 39.283 3.763 35.959 6.851 36.588 7.524 40.633 3.763"/>
    </g>
    <g transform="translate(547.4 64.4)">
      <path stroke="#AAB8B8" stroke-width=".92" d="M0.000276000005,3.76198127 L39.6357167,3.76198127"/>
      <polygon fill="#AAB8B8" points="36.588 0 35.959 .675 39.283 3.763 35.959 6.851 36.588 7.524 40.633 3.763"/>
    </g>
    <g transform="translate(191 170)">
      <path stroke="#414747" stroke-width="1.001" d="M4.0925,6.8954 L4.0925,7.8964"/>
      <path stroke="#414747" stroke-width="1.001" d="M4.0925,11.0194 L4.0925,40.7034" stroke-dasharray="2.084 3.124"/>
      <polyline stroke="#414747" stroke-width="1.001" points="4.093 42.266 4.093 43.266 5.093 43.266"/>
      <path stroke="#414747" stroke-width="1.001" d="M8.0212,43.2655 L99.2942,43.2655" stroke-dasharray="1.953 2.928"/>
      <path stroke="#414747" stroke-width="1.001" d="M100.7585,43.2655 L101.7595,43.2655"/>
      <polygon fill="#414747" points="0 10.211 .734 10.893 4.091 7.279 7.451 10.893 8.185 10.211 4.091 5.81"/>
      <g stroke="#414747" stroke-width="1.001" transform="translate(322 6.473)">
        <path d="M1.0925,0.792 L1.0925,1.793"/>
        <path d="M1.0925,4.8828 L1.0925,34.2458" stroke-dasharray="2.061 3.09"/>
        <polyline points="1.093 35.792 1.093 36.792 .092 36.792"/>
      </g>
      <path stroke="#414747" stroke-width="1.001" d="M319.072,43.2655 L219.901,43.2655" stroke-dasharray="2.014 3.02"/>
      <path stroke="#414747" stroke-width="1.001" d="M218.3914,43.2655 L217.3914,43.2655"/>
      <polygon fill="#414747" points="220.707 39.174 221.39 39.906 217.775 43.265 221.39 46.624 220.707 47.358 216.306 43.265"/>
      <g transform="translate(118)">
        <g stroke="#879196" stroke-width="2" transform="translate(0 22)" stroke-linejoin="round">
          <path d="M54.4207 36.0449L61.7777 36.0449C64.0367 33.9109 64.5387 28.5149 64.5387 28.5149L61.1497 25.1259 60.7747 5.6729C61.6387 7.0039 46.5567-8.0821 22.2447 8.9369 18.2027 11.7659 9.6047 16.7109 6.4067 18.5299 5.6387 18.9679 4.7037 18.9949 3.9107 18.6039L2.2037 17.7629C1.3997 17.3649.4577 17.9509.4577 18.8489L.4577 26.0629C.4577 26.0629 4.3837 26.4989 4.6017 31.1889M37.1794 36.0449L19.3584 36.0449"/>
          <path d="M18.7849,36.8701 C18.7849,41.3601 15.1439,45.0001 10.6539,45.0001 C6.1639,45.0001 2.5239,41.3601 2.5239,36.8701 C2.5239,32.3791 6.1639,28.7391 10.6539,28.7391 C15.1439,28.7391 18.7849,32.3791 18.7849,36.8701 Z"/>
          <path d="M15.1736 36.8701C15.1736 39.3651 13.1506 41.3891 10.6536 41.3891 8.1586 41.3891 6.1356 39.3651 6.1356 36.8701 6.1356 34.3741 8.1586 32.3501 10.6536 32.3501 13.1506 32.3501 15.1736 34.3741 15.1736 36.8701zM50.4568 36.8701C50.4568 39.3651 48.4338 41.3891 45.9378 41.3891 43.4418 41.3891 41.4188 39.3651 41.4188 36.8701 41.4188 34.3741 43.4418 32.3501 45.9378 32.3501 48.4338 32.3501 50.4568 34.3741 50.4568 36.8701z"/>
          <path d="M54.2292,36.8701 C54.2292,41.3601 50.5882,45.0001 46.0982,45.0001 C41.6082,45.0001 37.9682,41.3601 37.9682,36.8701 C37.9682,32.3791 41.6082,28.7391 46.0982,28.7391 C50.5882,28.7391 54.2292,32.3791 54.2292,36.8701 Z"/>
          <path d="M62.1902 36.1065C62.1902 40.5965 58.5502 44.2365 54.0602 44.2365 53.1072 44.2365 52.1922 44.0725 51.3422 43.7715M26.5281 36.1065C26.5281 40.5965 22.8871 44.2365 18.3971 44.2365 17.4441 44.2365 16.5291 44.0725 15.6791 43.7715"/>
        </g>
        <g transform="translate(16)">
          <mask id="d" fill="white">
            <use xlink:href="#c"/>
          </mask>
          <path stroke="#879196" stroke-width="2" d="M57.7664,34.624 L64.0724,34.624 C66.0084,32.796 66.4394,28.17 66.4394,28.17 L63.5354,25.266 L63.2114,8.593 C63.9534,9.733 51.0264,-3.196 30.1884,11.39 C26.7244,13.814 19.3544,18.053 16.6144,19.612 C15.9554,19.987 15.1544,20.011 14.4744,19.676 L13.0114,18.954 C12.3214,18.614 11.5144,19.116 11.5144,19.885 L11.5144,26.068 C11.5144,26.068 14.8794,26.442 15.0664,30.462" stroke-linejoin="round" mask="url(#d)"/>
          <mask id="f" fill="white">
            <use xlink:href="#e"/>
          </mask>
          <path stroke="#879196" stroke-width="2" d="M42.989,34.624 L27.715,34.624" stroke-linejoin="round" mask="url(#f)"/>
          <mask id="h" fill="white">
            <use xlink:href="#g"/>
          </mask>
          <path stroke="#879196" stroke-width="2" d="M27.2224,35.3311 C27.2224,39.1801 24.1034,42.3001 20.2544,42.3001 C16.4064,42.3001 13.2854,39.1801 13.2854,35.3311 C13.2854,31.4821 16.4064,28.3621 20.2544,28.3621 C24.1034,28.3621 27.2224,31.4821 27.2224,35.3311 Z" stroke-linejoin="round" mask="url(#h)"/>
          <g>
            <mask id="j" fill="white">
              <use xlink:href="#i"/>
            </mask>
            <path stroke="#879196" stroke-width="2" d="M24.1277,35.3311 C24.1277,37.4711 22.3937,39.2041 20.2547,39.2041 C18.1147,39.2041 16.3807,37.4711 16.3807,35.3311 C16.3807,33.1911 18.1147,31.4581 20.2547,31.4581 C22.3937,31.4581 24.1277,33.1911 24.1277,35.3311 Z" stroke-linejoin="round" mask="url(#j)"/>
          </g>
          <g>
            <mask id="l" fill="white">
              <use xlink:href="#k"/>
            </mask>
            <path stroke="#879196" stroke-width="2" d="M54.3689,35.3311 C54.3689,37.4711 52.6359,39.2041 50.4959,39.2041 C48.3559,39.2041 46.6229,37.4711 46.6229,35.3311 C46.6229,33.1911 48.3559,31.4581 50.4959,31.4581 C52.6359,31.4581 54.3689,33.1911 54.3689,35.3311 Z" stroke-linejoin="round" mask="url(#l)"/>
          </g>
          <g>
            <mask id="n" fill="white">
              <use xlink:href="#m"/>
            </mask>
            <path stroke="#879196" stroke-width="2" d="M57.6023,35.3311 C57.6023,39.1801 54.4823,42.3001 50.6333,42.3001 C46.7853,42.3001 43.6643,39.1801 43.6643,35.3311 C43.6643,31.4821 46.7853,28.3621 50.6333,28.3621 C54.4823,28.3621 57.6023,31.4821 57.6023,35.3311 Z" stroke-linejoin="round" mask="url(#n)"/>
          </g>
          <g>
            <mask id="p" fill="white">
              <use xlink:href="#o"/>
            </mask>
            <path stroke="#879196" stroke-width="2" d="M64.4255,34.6768 C64.4255,38.5258 61.3065,41.6458 57.4575,41.6458 C56.6405,41.6458 55.8565,41.5048 55.1275,41.2458" stroke-linejoin="round" mask="url(#p)"/>
          </g>
          <g>
            <mask id="r" fill="white">
              <use xlink:href="#q"/>
            </mask>
            <path stroke="#879196" stroke-width="2" d="M33.8591,34.6768 C33.8591,38.5258 30.7401,41.6458 26.8911,41.6458 C26.0741,41.6458 25.2901,41.5048 24.5611,41.2458" stroke-linejoin="round" mask="url(#r)"/>
          </g>
        </g>
      </g>
    </g>
  </g>
</svg>
